<?xml version="1.0" encoding="UTF-8" standalone="no"?>
<!DOCTYPE svg PUBLIC "-//W3C//DTD SVG 1.1//EN" "http://www.w3.org/Graphics/SVG/1.1/DTD/svg11.dtd">
<svg width="100%" height="100%" viewBox="0 0 299 85" version="1.1" xmlns="http://www.w3.org/2000/svg" xmlns:xlink="http://www.w3.org/1999/xlink" xml:space="preserve" xmlns:serif="http://www.serif.com/" style="fill-rule:evenodd;clip-rule:evenodd;stroke-linejoin:round;stroke-miterlimit:2;">
    <g transform="matrix(181.049,1.0732e-14,1.0732e-14,-181.049,168.093,69.936)">
        <rect x="-0.021" y="-0.083" width="0.742" height="0.13" style="fill:rgb(0,160,226);"/>
    </g>
    <g transform="matrix(2.8431,0,0,2.8431,2.19203,40.4854)">
        <path d="M0,-8.177C-0.22,-8.177 -0.406,-8.253 -0.553,-8.404C-0.697,-8.554 -0.771,-8.739 -0.771,-8.96C-0.771,-9.179 -0.697,-9.364 -0.552,-9.511C-0.405,-9.657 -0.219,-9.73 0,-9.73C0.22,-9.73 0.406,-9.657 0.556,-9.513C0.706,-9.366 0.782,-9.181 0.782,-8.96C0.782,-8.738 0.707,-8.55 0.557,-8.402C0.408,-8.253 0.22,-8.177 0,-8.177M-0.771,1.553L-0.771,-6.409C-0.771,-6.601 -0.699,-6.781 -0.558,-6.941C-0.41,-7.107 -0.223,-7.191 0,-7.191C0.223,-7.191 0.412,-7.107 0.562,-6.943C0.708,-6.782 0.782,-6.603 0.782,-6.409L0.782,1.553L-0.771,1.553Z" style="fill:rgb(35,31,32);fill-rule:nonzero;"/>
    </g>
    <g transform="matrix(2.8431,0,0,2.8431,2.19203,37.2724)">
        <path d="M0,-5.918C0.183,-5.918 0.335,-5.852 0.457,-5.717C0.58,-5.582 0.641,-5.438 0.641,-5.279L0.641,2.541L-0.629,2.541L-0.629,-5.279C-0.629,-5.438 -0.569,-5.582 -0.451,-5.717C-0.332,-5.852 -0.182,-5.918 0,-5.918M0,-5.918C0.183,-5.918 0.335,-5.852 0.457,-5.717C0.58,-5.582 0.641,-5.438 0.641,-5.279L0.641,2.541L-0.629,2.541L-0.629,-5.279C-0.629,-5.438 -0.569,-5.582 -0.451,-5.717C-0.332,-5.852 -0.182,-5.918 0,-5.918M0,-7.189C-0.182,-7.189 -0.332,-7.25 -0.451,-7.373C-0.569,-7.494 -0.629,-7.647 -0.629,-7.83C-0.629,-8.012 -0.569,-8.162 -0.451,-8.281C-0.332,-8.398 -0.182,-8.459 0,-8.459C0.183,-8.459 0.335,-8.398 0.457,-8.281C0.58,-8.162 0.641,-8.012 0.641,-7.83C0.641,-7.647 0.58,-7.494 0.457,-7.373C0.335,-7.25 0.183,-7.189 0,-7.189" style="fill:rgb(35,31,32);fill-rule:nonzero;"/>
    </g>
    <g transform="matrix(2.8431,0,0,2.8431,9.78281,30.1658)">
        <path d="M0,1.398C-0.171,1.398 -0.33,1.328 -0.472,1.191C-0.614,1.056 -0.687,0.896 -0.687,0.722C-0.687,0.525 -0.615,0.353 -0.473,0.212C-0.332,0.07 -0.172,0 0,0L7.428,0L7.428,0.05C7.543,0.078 7.646,0.138 7.734,0.234C7.854,0.365 7.915,0.529 7.915,0.722C7.915,0.894 7.854,1.043 7.731,1.166C7.643,1.253 7.541,1.31 7.428,1.336L7.428,1.349L7.286,1.398L0,1.398Z" style="fill:rgb(0,158,226);fill-rule:nonzero;"/>
    </g>
    <g transform="matrix(2.8431,0,0,2.8431,30.4979,30.5653)">
        <path d="M0,1.115L-7.286,1.115C-7.421,1.115 -7.545,1.06 -7.659,0.949C-7.774,0.84 -7.831,0.717 -7.831,0.582C-7.831,0.424 -7.774,0.287 -7.659,0.172C-7.545,0.058 -7.421,0 -7.286,0L0,0L0,0.035C0.135,0.035 0.249,0.088 0.345,0.189C0.439,0.293 0.487,0.424 0.487,0.582C0.487,0.717 0.439,0.83 0.345,0.926C0.249,1.019 0.135,1.068 0,1.068L0,1.115Z" style="fill:rgb(0,158,226);fill-rule:nonzero;"/>
    </g>
    <g transform="matrix(2.8431,0,0,2.8431,46.6959,19.9406)">
        <path d="M0,8.768L0,8.706C-0.604,8.692 -1.133,8.579 -1.623,8.372C-2.149,8.149 -2.617,7.838 -3.014,7.452C-3.409,7.063 -3.725,6.604 -3.952,6.084C-4.18,5.563 -4.296,4.993 -4.296,4.389C-4.296,3.788 -4.18,3.213 -3.952,2.684C-3.725,2.157 -3.41,1.688 -3.016,1.288C-2.619,0.887 -2.15,0.571 -1.623,0.344C-1.096,0.116 -0.522,0 0.081,0L3.808,0C4.028,0 4.212,0.075 4.354,0.221C4.496,0.368 4.566,0.557 4.566,0.782C4.566,1 4.496,1.188 4.356,1.336C4.212,1.489 4.028,1.565 3.808,1.565L0.081,1.565C-0.311,1.565 -0.681,1.639 -1.019,1.784C-1.361,1.932 -1.662,2.135 -1.912,2.389C-2.163,2.643 -2.364,2.946 -2.511,3.288C-2.657,3.627 -2.73,3.998 -2.73,4.389C-2.73,4.766 -2.657,5.123 -2.512,5.454C-2.365,5.789 -2.163,6.088 -1.912,6.344C-1.662,6.596 -1.361,6.799 -1.019,6.948C-0.679,7.092 -0.309,7.166 0.081,7.166L5.065,7.166C5.296,7.166 5.487,7.25 5.634,7.414C5.776,7.577 5.848,7.768 5.848,7.985C5.848,8.182 5.774,8.356 5.628,8.5C5.487,8.641 5.305,8.731 5.088,8.766L5.077,8.768L0,8.768Z" style="fill:rgb(35,31,32);fill-rule:nonzero;"/>
    </g>
    <g transform="matrix(2.8431,0,0,2.8431,62.9189,22.1634)">
        <path d="M0,7.203C0,7.361 -0.059,7.5 -0.178,7.619C-0.297,7.736 -0.45,7.812 -0.641,7.844L-5.564,7.844L-5.564,7.785L-5.625,7.785C-6.21,7.785 -6.76,7.676 -7.273,7.459C-7.788,7.24 -8.236,6.943 -8.621,6.568C-9.004,6.193 -9.307,5.752 -9.528,5.246C-9.75,4.738 -9.86,4.193 -9.86,3.607C-9.86,3.023 -9.75,2.473 -9.528,1.959C-9.307,1.445 -9.004,0.994 -8.621,0.605C-8.236,0.219 -7.788,-0.086 -7.273,-0.307C-6.76,-0.529 -6.21,-0.641 -5.625,-0.641L-1.898,-0.641C-1.717,-0.641 -1.568,-0.58 -1.453,-0.463C-1.339,-0.344 -1.281,-0.19 -1.281,-0C-1.281,0.182 -1.339,0.336 -1.453,0.457C-1.568,0.58 -1.717,0.642 -1.898,0.642L-5.625,0.642C-6.035,0.642 -6.422,0.719 -6.781,0.873C-7.141,1.027 -7.453,1.238 -7.719,1.508C-7.984,1.777 -8.193,2.092 -8.348,2.451C-8.502,2.81 -8.578,3.197 -8.578,3.607C-8.578,4.004 -8.502,4.377 -8.348,4.728C-8.193,5.082 -7.984,5.392 -7.719,5.662C-7.453,5.93 -7.141,6.141 -6.781,6.297C-6.422,6.449 -6.035,6.527 -5.625,6.527L-0.641,6.527C-0.45,6.527 -0.297,6.594 -0.178,6.728C-0.059,6.863 0,7.021 0,7.203" style="fill:rgb(35,31,32);fill-rule:nonzero;"/>
    </g>
    <g transform="matrix(2.8431,0,0,2.8431,77.2563,40.5531)">
        <path d="M0,-5.732C-0.39,-5.732 -0.763,-5.658 -1.108,-5.511C-1.455,-5.365 -1.759,-5.162 -2.011,-4.908C-2.265,-4.654 -2.469,-4.351 -2.617,-4.003C-2.763,-3.658 -2.837,-3.285 -2.837,-2.896C-2.837,-2.505 -2.763,-2.132 -2.617,-1.789C-2.469,-1.443 -2.265,-1.138 -2.011,-0.884C-1.759,-0.63 -1.455,-0.427 -1.107,-0.279C-0.764,-0.134 -0.392,-0.06 0,-0.06L1.389,-0.06C1.78,-0.06 2.15,-0.134 2.489,-0.279C2.832,-0.427 3.135,-0.63 3.388,-0.884C3.643,-1.138 3.848,-1.443 3.999,-1.791C4.149,-2.134 4.226,-2.507 4.226,-2.896C4.226,-3.283 4.149,-3.656 3.999,-4.002C3.848,-4.349 3.643,-4.654 3.388,-4.908C3.135,-5.162 2.832,-5.365 2.489,-5.513C2.149,-5.658 1.779,-5.732 1.389,-5.732L0,-5.732ZM0.047,1.506C-0.601,1.506 -1.177,1.389 -1.712,1.157C-2.245,0.924 -2.715,0.606 -3.108,0.211C-3.501,-0.179 -3.819,-0.65 -4.052,-1.183C-4.284,-1.72 -4.401,-2.294 -4.401,-2.896C-4.401,-3.498 -4.284,-4.07 -4.052,-4.597C-3.819,-5.123 -3.501,-5.587 -3.107,-5.974C-2.714,-6.365 -2.244,-6.677 -1.71,-6.902C-1.178,-7.125 -0.603,-7.238 0,-7.238L1.389,-7.238C1.991,-7.238 2.564,-7.125 3.093,-6.902C3.621,-6.677 4.091,-6.367 4.49,-5.976C4.888,-5.586 5.206,-5.121 5.435,-4.595C5.663,-4.068 5.778,-3.498 5.778,-2.896C5.778,-2.296 5.663,-1.72 5.435,-1.185C5.206,-0.652 4.888,-0.181 4.49,0.213C4.091,0.608 3.622,0.924 3.095,1.157C2.563,1.389 1.989,1.506 1.389,1.506L0.047,1.506Z" style="fill:rgb(35,31,32);fill-rule:nonzero;"/>
    </g>
    <g transform="matrix(2.8431,0,0,2.8431,81.2045,24.0159)">
        <path d="M0,5.899C0.411,5.899 0.797,5.823 1.156,5.669C1.517,5.512 1.831,5.301 2.1,5.034C2.369,4.764 2.582,4.448 2.74,4.083C2.898,3.719 2.979,3.333 2.979,2.92C2.979,2.51 2.898,2.122 2.74,1.758C2.582,1.393 2.369,1.077 2.1,0.809C1.831,0.54 1.517,0.329 1.156,0.174C0.797,0.02 0.411,-0.058 0,-0.058L-1.389,-0.058C-1.801,-0.058 -2.188,0.02 -2.552,0.174C-2.916,0.329 -3.232,0.54 -3.5,0.809C-3.77,1.077 -3.98,1.393 -4.136,1.758C-4.29,2.122 -4.367,2.51 -4.367,2.92C-4.367,3.333 -4.29,3.719 -4.136,4.083C-3.98,4.448 -3.77,4.764 -3.5,5.034C-3.232,5.301 -2.916,5.512 -2.552,5.669C-2.188,5.823 -1.801,5.899 -1.389,5.899L0,5.899ZM0,-1.281C0.585,-1.281 1.135,-1.171 1.649,-0.955C2.164,-0.736 2.614,-0.437 3.002,-0.058C3.389,0.321 3.693,0.766 3.916,1.278C4.137,1.788 4.248,2.335 4.248,2.92C4.248,3.506 4.137,4.057 3.916,4.577C3.693,5.094 3.389,5.545 3.002,5.928C2.614,6.313 2.164,6.618 1.649,6.842C1.135,7.067 0.585,7.18 0,7.18L-1.389,7.18C-1.975,7.18 -2.526,7.067 -3.044,6.842C-3.563,6.618 -4.014,6.313 -4.396,5.928C-4.781,5.545 -5.085,5.094 -5.311,4.577C-5.535,4.057 -5.648,3.506 -5.648,2.92C-5.648,2.335 -5.535,1.788 -5.311,1.278C-5.085,0.766 -4.781,0.321 -4.396,-0.058C-4.014,-0.437 -3.563,-0.736 -3.044,-0.955C-2.526,-1.171 -1.975,-1.281 -1.389,-1.281L0,-1.281Z" style="fill:rgb(35,31,32);fill-rule:nonzero;"/>
    </g>
    <g transform="matrix(2.8431,0,0,2.8431,130.934,19.9756)">
        <path d="M0,8.744L0,4.402C0,4.012 -0.074,3.639 -0.22,3.293C-0.365,2.951 -0.57,2.646 -0.83,2.389C-1.088,2.135 -1.396,1.93 -1.742,1.779C-2.086,1.629 -2.459,1.553 -2.849,1.553L-5.245,1.553C-5.375,1.553 -5.485,1.535 -5.582,1.502C-5.279,1.851 -5.033,2.25 -4.848,2.691C-4.624,3.223 -4.511,3.799 -4.511,4.402L-4.511,8.744L-6.063,8.744L-6.063,4.402C-6.063,4.012 -6.14,3.639 -6.289,3.295C-6.439,2.949 -6.643,2.644 -6.895,2.389C-7.146,2.135 -7.445,1.93 -7.783,1.779C-8.119,1.629 -8.479,1.553 -8.853,1.553L-10.586,1.553L-10.586,8.744L-12.139,8.744L-12.139,0.781C-12.139,0.551 -12.055,0.359 -11.89,0.213C-11.728,0.07 -11.549,0 -11.356,0L-8.853,0C-8.252,0 -7.68,0.117 -7.152,0.349C-6.732,0.535 -6.352,0.775 -6.016,1.066C-6.047,0.978 -6.063,0.885 -6.063,0.781C-6.063,0.555 -5.99,0.365 -5.843,0.219C-5.698,0.072 -5.513,0 -5.293,0L-2.896,0C-2.249,0 -1.672,0.117 -1.137,0.349C-0.604,0.58 -0.134,0.898 0.26,1.293C0.654,1.687 0.971,2.156 1.203,2.689C1.435,3.224 1.553,3.801 1.553,4.402L1.553,8.744L0,8.744Z" style="fill:rgb(35,31,32);fill-rule:nonzero;"/>
    </g>
    <g transform="matrix(2.8431,0,0,2.8431,122.835,44.4302)">
        <path d="M0,-8.461C0.586,-8.461 1.137,-8.348 1.655,-8.123C2.174,-7.897 2.625,-7.592 3.008,-7.209C3.393,-6.824 3.696,-6.373 3.922,-5.856C4.146,-5.338 4.26,-4.785 4.26,-4.199L4.26,0L2.99,0L2.99,-4.199C2.99,-4.611 2.913,-5 2.76,-5.363C2.605,-5.727 2.391,-6.043 2.119,-6.313C1.846,-6.582 1.527,-6.795 1.163,-6.953C0.799,-7.111 0.412,-7.19 0,-7.19L-2.444,-7.19C-2.627,-7.19 -2.776,-7.25 -2.895,-7.367C-3.014,-7.486 -3.073,-7.639 -3.073,-7.82C-3.073,-8.01 -3.014,-8.164 -2.895,-8.283C-2.776,-8.4 -2.627,-8.461 -2.444,-8.461L0,-8.461ZM-6.004,-8.461C-5.419,-8.461 -4.871,-8.348 -4.36,-8.123C-3.85,-7.897 -3.405,-7.592 -3.025,-7.209C-2.646,-6.824 -2.348,-6.373 -2.13,-5.856C-1.912,-5.338 -1.804,-4.785 -1.804,-4.199L-1.804,0L-3.073,0L-3.073,-4.199C-3.073,-4.611 -3.152,-5 -3.311,-5.363C-3.469,-5.727 -3.681,-6.043 -3.945,-6.313C-4.211,-6.582 -4.521,-6.795 -4.877,-6.953C-5.232,-7.111 -5.608,-7.19 -6.004,-7.19L-7.879,-7.19L-7.879,0L-9.148,0L-9.148,-7.82C-9.148,-8.01 -9.082,-8.164 -8.947,-8.283C-8.813,-8.4 -8.666,-8.461 -8.508,-8.461L-6.004,-8.461Z" style="fill:rgb(35,31,32);fill-rule:nonzero;"/>
    </g>
    <g transform="matrix(2.8431,0,0,2.8431,140.376,20.0083)">
        <path d="M0,14C-0.184,14 -0.359,13.93 -0.52,13.787C-0.687,13.639 -0.771,13.451 -0.771,13.229L-0.771,0.629L-0.708,0.629C-0.682,0.488 -0.614,0.359 -0.507,0.242C-0.362,0.082 -0.192,0 0,0L4.961,0C5.571,0 6.149,0.115 6.678,0.344C7.206,0.57 7.672,0.887 8.063,1.281C8.455,1.68 8.766,2.146 8.989,2.672C9.213,3.201 9.326,3.771 9.326,4.365C9.326,4.961 9.213,5.527 8.989,6.053C8.766,6.576 8.455,7.043 8.064,7.438C7.672,7.834 7.206,8.148 6.678,8.375C6.147,8.604 5.57,8.721 4.961,8.721L2.588,8.721C2.364,8.721 2.177,8.639 2.032,8.477C1.89,8.322 1.817,8.141 1.817,7.938C1.817,7.717 1.891,7.531 2.037,7.385C2.182,7.24 2.368,7.166 2.588,7.166L4.961,7.166C5.353,7.166 5.723,7.092 6.061,6.947C6.406,6.799 6.708,6.596 6.961,6.348C7.214,6.1 7.417,5.799 7.565,5.455C7.711,5.115 7.785,4.748 7.785,4.365C7.785,3.977 7.711,3.605 7.565,3.264C7.418,2.922 7.215,2.619 6.96,2.365C6.708,2.113 6.405,1.908 6.061,1.76C5.723,1.615 5.353,1.541 4.961,1.541L1.271,1.541C1.145,1.541 1.031,1.586 0.923,1.68C0.821,1.768 0.771,1.863 0.771,1.969L0.771,13.229C0.771,13.449 0.697,13.637 0.551,13.781C0.405,13.928 0.219,14 0,14" style="fill:rgb(35,31,32);fill-rule:nonzero;"/>
    </g>
    <g transform="matrix(2.8431,0,0,2.8431,140.376,20.4132)">
        <path d="M0,13.717C-0.15,13.717 -0.292,13.656 -0.427,13.539C-0.561,13.42 -0.629,13.27 -0.629,13.086L-0.629,0.627L-0.58,0.627C-0.58,0.469 -0.521,0.324 -0.402,0.196C-0.284,0.065 -0.15,0 0,0L4.961,0C5.554,0 6.107,0.11 6.622,0.332C7.136,0.553 7.583,0.856 7.963,1.238C8.342,1.623 8.641,2.072 8.858,2.586C9.076,3.1 9.185,3.647 9.185,4.223C9.185,4.801 9.076,5.344 8.858,5.856C8.641,6.365 8.342,6.813 7.963,7.196C7.583,7.58 7.136,7.883 6.622,8.104C6.107,8.324 5.554,8.436 4.961,8.436L2.588,8.436C2.405,8.436 2.255,8.371 2.137,8.24C2.018,8.11 1.959,7.961 1.959,7.795C1.959,7.613 2.018,7.463 2.137,7.344C2.255,7.225 2.405,7.166 2.588,7.166L4.961,7.166C5.371,7.166 5.758,7.09 6.117,6.936C6.477,6.78 6.792,6.571 7.061,6.305C7.33,6.041 7.541,5.729 7.695,5.369C7.85,5.01 7.927,4.627 7.927,4.223C7.927,3.813 7.85,3.426 7.695,3.067C7.541,2.707 7.33,2.393 7.061,2.123C6.792,1.854 6.477,1.643 6.117,1.488C5.758,1.334 5.371,1.258 4.961,1.258L1.271,1.258C1.111,1.258 0.965,1.315 0.831,1.43C0.697,1.545 0.629,1.676 0.629,1.826L0.629,13.086C0.629,13.27 0.57,13.42 0.451,13.539C0.332,13.656 0.183,13.717 0,13.717" style="fill:rgb(35,31,32);fill-rule:nonzero;"/>
    </g>
    <g transform="matrix(2.8431,0,0,2.8431,182.246,19.9756)">
        <path d="M0,8.744C-0.604,8.744 -1.175,8.627 -1.7,8.398C-2.225,8.172 -2.69,7.857 -3.085,7.461C-3.48,7.066 -3.795,6.601 -4.022,6.078C-4.25,5.551 -4.366,4.978 -4.366,4.377L-4.366,0.781C-4.366,0.58 -4.294,0.398 -4.152,0.242C-4.005,0.08 -3.814,0 -3.584,0C-3.359,0 -3.174,0.082 -3.032,0.244C-2.895,0.398 -2.825,0.58 -2.825,0.781L-2.825,4.377C-2.825,4.767 -2.751,5.139 -2.605,5.478C-2.459,5.82 -2.255,6.121 -2,6.379C-1.745,6.633 -1.442,6.836 -1.101,6.98C-0.761,7.129 -0.391,7.203 0,7.203L1.377,7.203C1.768,7.203 2.138,7.129 2.477,6.982C2.819,6.836 3.122,6.633 3.376,6.377C3.631,6.123 3.834,5.82 3.981,5.478C4.127,5.139 4.201,4.767 4.201,4.377L4.201,0.781C4.201,0.58 4.271,0.398 4.41,0.244C4.551,0.082 4.736,0 4.96,0C5.2,0 5.394,0.082 5.536,0.244C5.673,0.4 5.742,0.582 5.742,0.781L5.742,4.377C5.742,4.98 5.626,5.553 5.398,6.078C5.171,6.599 4.856,7.066 4.462,7.461C4.065,7.857 3.597,8.172 3.07,8.398C2.542,8.627 1.973,8.744 1.377,8.744L0,8.744Z" style="fill:rgb(35,31,32);fill-rule:nonzero;"/>
    </g>
    <g transform="matrix(2.8431,0,0,2.8431,198.168,32.388)">
        <path d="M0,0.011C0,0.597 -0.11,1.146 -0.332,1.656C-0.554,2.165 -0.856,2.613 -1.239,2.995C-1.624,3.38 -2.073,3.683 -2.587,3.904C-3.101,4.126 -3.647,4.236 -4.224,4.236L-5.601,4.236C-6.187,4.236 -6.733,4.126 -7.244,3.904C-7.755,3.683 -8.202,3.38 -8.585,2.995C-8.969,2.613 -9.271,2.165 -9.493,1.656C-9.714,1.146 -9.825,0.597 -9.825,0.011L-9.825,-3.585C-9.825,-3.751 -9.766,-3.899 -9.647,-4.028C-9.528,-4.159 -9.374,-4.225 -9.185,-4.225C-9.002,-4.225 -8.854,-4.159 -8.739,-4.028C-8.624,-3.899 -8.567,-3.751 -8.567,-3.585L-8.567,0.011C-8.567,0.423 -8.49,0.81 -8.336,1.169C-8.182,1.529 -7.97,1.843 -7.701,2.113C-7.433,2.38 -7.118,2.593 -6.757,2.745C-6.397,2.902 -6.012,2.978 -5.601,2.978L-4.224,2.978C-3.813,2.978 -3.427,2.902 -3.067,2.745C-2.708,2.593 -2.393,2.38 -2.124,2.113C-1.854,1.843 -1.644,1.529 -1.489,1.169C-1.335,0.81 -1.258,0.423 -1.258,0.011L-1.258,-3.585C-1.258,-3.751 -1.2,-3.899 -1.085,-4.028C-0.971,-4.159 -0.823,-4.225 -0.641,-4.225C-0.442,-4.225 -0.286,-4.159 -0.172,-4.028C-0.058,-3.899 0,-3.751 0,-3.585L0,0.011Z" style="fill:rgb(35,31,32);fill-rule:nonzero;"/>
    </g>
    <g transform="matrix(2.8431,0,0,2.8431,219.053,0)">
        <path d="M0,15.77C-0.75,15.77 -1.466,15.633 -2.131,15.362C-2.792,15.092 -3.382,14.715 -3.883,14.241C-4.382,13.77 -4.796,13.209 -5.111,12.571C-5.427,11.932 -5.611,11.231 -5.659,10.487L-5.659,0.772C-5.659,0.575 -5.58,0.395 -5.422,0.239C-5.266,0.081 -5.086,0 -4.889,0C-4.668,0 -4.476,0.081 -4.315,0.237C-4.153,0.395 -4.071,0.575 -4.071,0.772L-4.071,0.805L-4.092,0.881C-4.098,0.897 -4.112,0.916 -4.146,0.963L-4.119,4.461L-0.589,4.461C-0.356,4.461 -0.184,4.543 -0.034,4.704C0.114,4.858 0.188,5.038 0.188,5.233C0.188,5.456 0.112,5.641 -0.038,5.786C-0.189,5.93 -0.359,6.002 -0.545,6.002L-4.118,6.002L-4.118,10.36L-4.071,10.469C-4.034,11 -3.899,11.5 -3.67,11.956C-3.443,12.413 -3.142,12.815 -2.775,13.151C-2.41,13.485 -1.985,13.752 -1.514,13.942C-1.043,14.131 -0.534,14.229 0,14.229L0.106,14.229C0.317,14.258 0.481,14.344 0.613,14.487C0.749,14.631 0.817,14.803 0.817,14.999C0.817,15.196 0.738,15.375 0.58,15.532C0.423,15.69 0.243,15.77 0.047,15.77L0,15.77Z" style="fill:rgb(35,31,32);fill-rule:nonzero;"/>
    </g>
    <g transform="matrix(2.8431,0,0,2.8431,207.184,28.1717)">
        <path d="M0,-4.047C-0.171,-4.047 -0.312,-4.108 -0.424,-4.225C-0.535,-4.344 -0.591,-4.494 -0.591,-4.676C-0.591,-4.834 -0.535,-4.979 -0.424,-5.109C-0.312,-5.24 -0.171,-5.305 0,-5.305L3.63,-5.305C3.778,-5.305 3.915,-5.24 4.038,-5.109C4.161,-4.979 4.222,-4.834 4.222,-4.676C4.222,-4.494 4.161,-4.344 4.038,-4.225C3.915,-4.108 3.778,-4.047 3.63,-4.047L0,-4.047ZM4.281,4.461C4.439,4.484 4.574,4.557 4.685,4.674C4.796,4.793 4.851,4.932 4.851,5.09C4.851,5.248 4.786,5.392 4.655,5.523C4.524,5.654 4.38,5.719 4.222,5.719L4.175,5.719C3.438,5.719 2.747,5.586 2.098,5.322C1.449,5.057 0.88,4.693 0.39,4.228C-0.102,3.767 -0.501,3.223 -0.81,2.599C-1.118,1.974 -1.296,1.297 -1.343,0.57L-1.343,-9.137C-1.343,-9.295 -1.278,-9.44 -1.147,-9.57C-1.017,-9.701 -0.872,-9.766 -0.714,-9.766C-0.532,-9.766 -0.374,-9.701 -0.239,-9.57C-0.105,-9.44 -0.038,-9.295 -0.038,-9.137C-0.038,-9.113 -0.04,-9.098 -0.044,-9.09C-0.048,-9.082 -0.062,-9.063 -0.085,-9.031L-0.085,0.57L-0.038,0.57C0.001,1.123 0.14,1.637 0.378,2.111C0.614,2.586 0.923,2.998 1.304,3.346C1.683,3.693 2.118,3.967 2.608,4.164C3.099,4.363 3.62,4.461 4.175,4.461L4.281,4.461Z" style="fill:rgb(35,31,32);fill-rule:nonzero;"/>
    </g>
    <g transform="matrix(2.8431,0,0,2.8431,234.168,20.0097)">
        <path d="M0,8.732C-0.652,8.732 -1.224,8.615 -1.748,8.386C-2.271,8.16 -2.735,7.845 -3.128,7.449C-3.519,7.054 -3.83,6.587 -4.053,6.064C-4.276,5.539 -4.39,4.976 -4.39,4.39C-4.39,3.789 -4.277,3.214 -4.054,2.685C-3.831,2.158 -3.52,1.689 -3.129,1.289C-2.736,0.888 -2.271,0.57 -1.748,0.343C-1.223,0.115 -0.652,0 -0.049,0L1.494,0C2.083,0.015 2.64,0.14 3.153,0.367C3.668,0.597 4.121,0.914 4.499,1.306C4.878,1.705 5.181,2.17 5.398,2.691C5.618,3.216 5.729,3.787 5.729,4.39C5.729,4.617 5.656,4.806 5.51,4.953C5.366,5.097 5.177,5.171 4.947,5.171L0.807,5.171C0.609,5.171 0.437,5.097 0.294,4.951C0.154,4.804 0.083,4.615 0.083,4.39C0.083,4.171 0.153,3.986 0.292,3.836C0.436,3.683 0.609,3.607 0.807,3.607L4.083,3.607C4.017,3.353 3.916,3.115 3.782,2.896C3.616,2.625 3.411,2.388 3.172,2.191C2.936,1.994 2.66,1.836 2.353,1.722C2.049,1.609 1.725,1.552 1.388,1.552L-0.049,1.552C-0.422,1.552 -0.782,1.627 -1.12,1.771C-1.458,1.92 -1.759,2.123 -2.013,2.377C-2.269,2.632 -2.472,2.931 -2.618,3.265C-2.763,3.597 -2.837,3.959 -2.837,4.341C-2.837,4.734 -2.763,5.103 -2.618,5.443C-2.472,5.785 -2.268,6.086 -2.013,6.343C-1.757,6.597 -1.456,6.804 -1.118,6.953C-0.782,7.103 -0.422,7.179 -0.049,7.179L4.947,7.179C5.179,7.179 5.37,7.259 5.515,7.421C5.657,7.576 5.729,7.755 5.729,7.949C5.729,8.177 5.656,8.367 5.51,8.513C5.365,8.658 5.175,8.732 4.947,8.732L0,8.732Z" style="fill:rgb(35,31,32);fill-rule:nonzero;"/>
    </g>
    <g transform="matrix(2.8431,0,0,2.8431,246.279,34.1814)">
        <path d="M0,-1.237C-0.064,-1.569 -0.183,-1.878 -0.356,-2.163C-0.531,-2.446 -0.744,-2.694 -0.997,-2.903C-1.25,-3.114 -1.537,-3.276 -1.857,-3.395C-2.178,-3.514 -2.516,-3.573 -2.872,-3.573L-4.309,-3.573C-4.703,-3.573 -5.079,-3.497 -5.436,-3.342C-5.791,-3.188 -6.104,-2.977 -6.373,-2.708C-6.642,-2.438 -6.854,-2.128 -7.008,-1.776C-7.162,-1.424 -7.238,-1.046 -7.238,-0.643C-7.238,-0.231 -7.162,0.154 -7.008,0.515C-6.854,0.874 -6.642,1.189 -6.373,1.458C-6.104,1.726 -5.791,1.941 -5.436,2.099C-5.079,2.257 -4.703,2.335 -4.309,2.335L0.687,2.335C0.878,2.335 1.032,2.4 1.15,2.531C1.27,2.661 1.328,2.806 1.328,2.964C1.328,3.154 1.27,3.308 1.15,3.427C1.032,3.546 0.878,3.605 0.687,3.605L-4.309,3.605C-4.894,3.605 -5.441,3.495 -5.951,3.273C-6.461,3.052 -6.906,2.749 -7.287,2.365C-7.666,1.982 -7.965,1.534 -8.183,1.025C-8.399,0.515 -8.508,-0.026 -8.508,-0.594C-8.508,-1.18 -8.399,-1.731 -8.183,-2.245C-7.965,-2.758 -7.666,-3.21 -7.287,-3.598C-6.906,-3.985 -6.461,-4.29 -5.951,-4.51C-5.441,-4.733 -4.894,-4.842 -4.309,-4.842L-2.766,-4.842C-2.195,-4.827 -1.662,-4.71 -1.164,-4.489C-0.665,-4.266 -0.231,-3.964 0.137,-3.581C0.504,-3.196 0.795,-2.749 1.008,-2.239C1.222,-1.729 1.328,-1.18 1.328,-0.594C1.328,-0.405 1.27,-0.253 1.15,-0.133C1.032,-0.014 0.878,0.044 0.687,0.044L-3.453,0.044C-3.611,0.044 -3.748,-0.014 -3.863,-0.133C-3.978,-0.253 -4.035,-0.405 -4.035,-0.594C-4.035,-0.778 -3.978,-0.93 -3.863,-1.053C-3.748,-1.175 -3.611,-1.237 -3.453,-1.237L0,-1.237Z" style="fill:rgb(35,31,32);fill-rule:nonzero;"/>
    </g>
    <g transform="matrix(2.8431,0,0,2.8431,253.328,20.041)">
        <path d="M0,8.721L0,4.366C0,3.774 0.115,3.203 0.343,2.672C0.572,2.145 0.886,1.676 1.275,1.282C1.665,0.889 2.129,0.573 2.654,0.344C3.181,0.116 3.753,0 4.354,0L4.628,0C4.777,0 4.875,0.024 4.968,0.067C5.057,0.11 5.138,0.168 5.208,0.239C5.278,0.307 5.336,0.391 5.38,0.487C5.424,0.584 5.445,0.684 5.445,0.782C5.445,1.014 5.364,1.203 5.203,1.346C5.044,1.485 4.867,1.553 4.675,1.553L4.401,1.553C3.965,1.553 3.595,1.627 3.254,1.772C2.911,1.92 2.61,2.123 2.362,2.377C2.106,2.637 1.91,2.932 1.762,3.278C1.615,3.619 1.541,3.985 1.541,4.366L1.541,8.721L0,8.721Z" style="fill:rgb(35,31,32);fill-rule:nonzero;"/>
    </g>
    <g transform="matrix(2.8431,0,0,2.8431,267.278,44.2801)">
        <path d="M0,-8.33C0.075,-8.295 0.143,-8.246 0.202,-8.187C0.261,-8.129 0.309,-8.06 0.345,-7.98C0.38,-7.902 0.397,-7.822 0.397,-7.744C0.397,-7.553 0.332,-7.4 0.202,-7.285C0.071,-7.172 -0.073,-7.113 -0.231,-7.113L-0.552,-7.113C-0.963,-7.113 -1.349,-7.037 -1.708,-6.883C-2.069,-6.728 -2.382,-6.518 -2.646,-6.248C-2.911,-5.978 -3.12,-5.664 -3.274,-5.305C-3.429,-4.945 -3.507,-4.562 -3.507,-4.16L-3.507,0.053L-4.765,0.053L-4.765,-4.16C-4.765,-4.736 -4.653,-5.283 -4.433,-5.797C-4.21,-6.31 -3.91,-6.76 -3.53,-7.144C-3.15,-7.527 -2.706,-7.83 -2.195,-8.053C-1.685,-8.273 -1.138,-8.383 -0.552,-8.383L-0.231,-8.383C-0.153,-8.383 -0.075,-8.367 0,-8.33" style="fill:rgb(35,31,32);fill-rule:nonzero;"/>
    </g>
    <g transform="matrix(2.8431,0,0,2.8431,272.086,20.041)">
        <path d="M0,8.721C-0.22,8.721 -0.405,8.647 -0.55,8.502C-0.697,8.356 -0.771,8.17 -0.771,7.95C-0.771,7.754 -0.699,7.582 -0.558,7.436C-0.425,7.297 -0.262,7.207 -0.075,7.17L4.925,7.168C5.431,7.168 5.857,7.073 6.238,6.885C6.62,6.7 6.938,6.442 7.186,6.119C7.275,5.996 7.322,5.873 7.322,5.754C7.322,5.602 7.274,5.465 7.174,5.338C7.081,5.217 6.974,5.16 6.835,5.16L0,5.16C-0.191,5.16 -0.36,5.104 -0.502,4.994C-0.648,4.881 -0.739,4.725 -0.769,4.53L-0.771,4.295C-0.771,3.7 -0.657,3.135 -0.433,2.614C-0.209,2.094 0.102,1.633 0.493,1.244C0.884,0.86 1.348,0.553 1.874,0.332C2.396,0.112 2.967,0 3.571,0L8.484,0C8.774,0 8.953,0.075 9.11,0.223C9.269,0.373 9.35,0.549 9.35,0.746C9.35,0.971 9.269,1.159 9.109,1.307C8.951,1.455 8.772,1.53 8.579,1.53L3.655,1.53C3.075,1.53 2.59,1.666 2.165,1.936C1.736,2.205 1.393,2.563 1.144,3C1.114,3.045 1.09,3.094 1.068,3.149C1.052,3.194 1.043,3.242 1.043,3.285C1.043,3.424 1.082,3.52 1.166,3.584C1.259,3.655 1.383,3.69 1.543,3.69L8.579,3.69C8.774,3.69 8.948,3.762 9.094,3.903C9.234,4.039 9.32,4.203 9.348,4.393L9.202,4.514L9.337,4.557C9.306,5.141 9.169,5.688 8.932,6.188C8.697,6.688 8.38,7.131 7.99,7.506C7.598,7.881 7.14,8.18 6.628,8.395C6.113,8.612 5.556,8.721 4.972,8.721L0,8.721Z" style="fill:rgb(35,31,32);fill-rule:nonzero;"/>
    </g>
    <g transform="matrix(2.8431,0,0,2.8431,298.266,32.1532)">
        <path d="M0,0.154L0,0.224C0,0.232 -0.002,0.242 -0.006,0.254C-0.01,0.267 -0.012,0.281 -0.012,0.297C-0.043,0.857 -0.174,1.381 -0.404,1.867C-0.633,2.353 -0.937,2.779 -1.316,3.144C-1.697,3.508 -2.136,3.795 -2.635,4.004C-3.133,4.213 -3.666,4.318 -4.236,4.318L-9.208,4.318C-9.391,4.318 -9.54,4.26 -9.658,4.14C-9.777,4.021 -9.837,3.873 -9.837,3.689C-9.837,3.531 -9.779,3.392 -9.664,3.273C-9.551,3.156 -9.414,3.08 -9.256,3.049L-4.236,3.049C-3.754,3.049 -3.311,2.951 -2.907,2.752C-2.504,2.555 -2.172,2.287 -1.91,1.945C-1.8,1.795 -1.744,1.644 -1.744,1.494C-1.744,1.312 -1.803,1.144 -1.922,0.99C-2.041,0.836 -2.191,0.758 -2.373,0.758L-9.208,0.758C-9.366,0.758 -9.505,0.713 -9.623,0.621C-9.742,0.531 -9.813,0.406 -9.837,0.248L-9.837,0.035C-9.837,-0.543 -9.729,-1.084 -9.511,-1.59C-9.293,-2.098 -8.994,-2.539 -8.615,-2.914C-8.235,-3.289 -7.79,-3.584 -7.279,-3.797C-6.77,-4.012 -6.223,-4.117 -5.637,-4.117L-0.629,-4.117C-0.471,-4.117 -0.326,-4.057 -0.195,-3.934C-0.064,-3.811 0,-3.672 0,-3.514C0,-3.332 -0.064,-3.178 -0.195,-3.057C-0.326,-2.934 -0.471,-2.871 -0.629,-2.871L-5.601,-2.871C-6.162,-2.871 -6.668,-2.731 -7.119,-2.445C-7.57,-2.16 -7.926,-1.789 -8.188,-1.33C-8.219,-1.283 -8.247,-1.227 -8.271,-1.164C-8.294,-1.102 -8.307,-1.037 -8.307,-0.975C-8.307,-0.791 -8.247,-0.656 -8.129,-0.565C-8.01,-0.473 -7.855,-0.428 -7.665,-0.428L-0.629,-0.428C-0.471,-0.428 -0.332,-0.371 -0.213,-0.256C-0.095,-0.141 -0.023,-0.004 0,0.154Z" style="fill:rgb(35,31,32);fill-rule:nonzero;"/>
    </g>
    <g transform="matrix(2.8431,0,0,2.8431,-92.3313,-78.5605)">
        <g transform="matrix(7.1782,0,0,7.1782,95.8857,55.485)">
            <path d="M0.113,-0.552C0.141,-0.552 0.163,-0.574 0.163,-0.602C0.163,-0.63 0.141,-0.653 0.113,-0.653C0.085,-0.653 0.062,-0.63 0.062,-0.602C0.062,-0.574 0.085,-0.552 0.113,-0.552ZM0.15,-0L0.15,-0.483L0.075,-0.483L0.075,-0L0.15,-0Z" style="fill:white;fill-rule:nonzero;"/>
        </g>
        <g transform="matrix(7.1782,0,0,7.1782,97.5008,55.485)">
            <path d="M0.198,0.012C0.241,0.012 0.268,-0.001 0.287,-0.019L0.265,-0.076C0.255,-0.065 0.236,-0.055 0.214,-0.055C0.182,-0.055 0.166,-0.081 0.166,-0.117L0.166,-0.417L0.264,-0.417L0.264,-0.483L0.166,-0.483L0.166,-0.615L0.09,-0.615L0.09,-0.483L0.01,-0.483L0.01,-0.417L0.09,-0.417L0.09,-0.101C0.09,-0.029 0.126,0.012 0.198,0.012Z" style="fill:white;fill-rule:nonzero;"/>
        </g>
        <g transform="matrix(7.1782,0,0,7.1782,101.47,55.485)">
            <path d="M0.613,-0C0.564,-0.045 0.523,-0.085 0.483,-0.126C0.523,-0.182 0.552,-0.245 0.574,-0.298L0.51,-0.327C0.498,-0.29 0.474,-0.229 0.438,-0.174C0.412,-0.202 0.386,-0.231 0.359,-0.263C0.337,-0.288 0.308,-0.322 0.281,-0.358C0.366,-0.402 0.451,-0.446 0.451,-0.546C0.451,-0.63 0.387,-0.677 0.301,-0.677C0.206,-0.677 0.133,-0.611 0.133,-0.523C0.133,-0.476 0.154,-0.424 0.184,-0.373C0.107,-0.331 0.037,-0.278 0.037,-0.174C0.037,-0.051 0.13,0.012 0.244,0.012C0.325,0.012 0.387,-0.021 0.436,-0.07C0.463,-0.043 0.489,-0.017 0.509,-0L0.613,-0ZM0.252,-0.05C0.181,-0.05 0.117,-0.096 0.117,-0.179C0.117,-0.248 0.16,-0.289 0.216,-0.323C0.242,-0.285 0.271,-0.249 0.299,-0.217C0.318,-0.194 0.353,-0.156 0.391,-0.116C0.353,-0.077 0.307,-0.05 0.252,-0.05ZM0.21,-0.521C0.21,-0.579 0.252,-0.619 0.303,-0.619C0.348,-0.619 0.382,-0.592 0.382,-0.543C0.382,-0.476 0.321,-0.441 0.25,-0.406C0.227,-0.445 0.21,-0.486 0.21,-0.521Z" style="fill:white;fill-rule:nonzero;"/>
        </g>
        <g transform="matrix(7.1782,0,0,7.1782,107.938,55.485)">
            <path d="M0.229,0.012C0.353,0.012 0.418,-0.053 0.418,-0.134C0.418,-0.322 0.119,-0.253 0.119,-0.358C0.119,-0.401 0.16,-0.434 0.226,-0.434C0.289,-0.434 0.341,-0.408 0.37,-0.373L0.405,-0.425C0.367,-0.464 0.309,-0.495 0.226,-0.495C0.111,-0.495 0.047,-0.432 0.047,-0.356C0.047,-0.177 0.346,-0.249 0.346,-0.132C0.346,-0.084 0.305,-0.049 0.231,-0.049C0.165,-0.049 0.104,-0.081 0.072,-0.118L0.034,-0.064C0.083,-0.013 0.149,0.012 0.229,0.012Z" style="fill:white;fill-rule:nonzero;"/>
        </g>
        <g transform="matrix(7.1782,0,0,7.1782,111.276,55.485)">
            <path d="M0.294,0.012C0.372,0.012 0.437,-0.015 0.486,-0.063L0.45,-0.112C0.411,-0.072 0.356,-0.05 0.3,-0.05C0.196,-0.05 0.133,-0.126 0.127,-0.217L0.517,-0.217L0.517,-0.236C0.517,-0.381 0.431,-0.495 0.285,-0.495C0.147,-0.495 0.047,-0.382 0.047,-0.242C0.047,-0.091 0.15,0.012 0.294,0.012ZM0.443,-0.273L0.126,-0.273C0.13,-0.346 0.181,-0.433 0.284,-0.433C0.394,-0.433 0.442,-0.344 0.443,-0.273Z" style="fill:white;fill-rule:nonzero;"/>
        </g>
        <g transform="matrix(7.1782,0,0,7.1782,115.317,55.485)">
            <path d="M0.288,0.012C0.376,0.012 0.428,-0.024 0.465,-0.072L0.415,-0.118C0.383,-0.075 0.342,-0.055 0.292,-0.055C0.19,-0.055 0.125,-0.135 0.125,-0.242C0.125,-0.349 0.19,-0.428 0.292,-0.428C0.342,-0.428 0.383,-0.41 0.415,-0.366L0.465,-0.411C0.428,-0.459 0.376,-0.495 0.288,-0.495C0.144,-0.495 0.047,-0.385 0.047,-0.242C0.047,-0.099 0.144,0.012 0.288,0.012Z" style="fill:white;fill-rule:nonzero;"/>
        </g>
        <g transform="matrix(7.1782,0,0,7.1782,118.877,55.485)">
            <path d="M0.476,-0L0.476,-0.483L0.401,-0.483L0.401,-0.128C0.373,-0.089 0.317,-0.055 0.259,-0.055C0.193,-0.055 0.15,-0.08 0.15,-0.165L0.15,-0.483L0.075,-0.483L0.075,-0.142C0.075,-0.038 0.128,0.012 0.229,0.012C0.301,0.012 0.364,-0.026 0.401,-0.068L0.401,-0L0.476,-0Z" style="fill:white;fill-rule:nonzero;"/>
        </g>
        <g transform="matrix(7.1782,0,0,7.1782,122.833,55.485)">
            <path d="M0.15,-0L0.15,-0.342C0.172,-0.381 0.235,-0.419 0.282,-0.419C0.293,-0.419 0.302,-0.418 0.311,-0.417L0.311,-0.494C0.245,-0.494 0.189,-0.456 0.15,-0.406L0.15,-0.483L0.075,-0.483L0.075,-0L0.15,-0Z" style="fill:white;fill-rule:nonzero;"/>
        </g>
        <g transform="matrix(7.1782,0,0,7.1782,125.201,55.485)">
            <path d="M0.113,-0.552C0.141,-0.552 0.163,-0.574 0.163,-0.602C0.163,-0.63 0.141,-0.653 0.113,-0.653C0.085,-0.653 0.062,-0.63 0.062,-0.602C0.062,-0.574 0.085,-0.552 0.113,-0.552ZM0.15,-0L0.15,-0.483L0.075,-0.483L0.075,-0L0.15,-0Z" style="fill:white;fill-rule:nonzero;"/>
        </g>
        <g transform="matrix(7.1782,0,0,7.1782,126.817,55.485)">
            <path d="M0.198,0.012C0.241,0.012 0.268,-0.001 0.287,-0.019L0.265,-0.076C0.255,-0.065 0.236,-0.055 0.214,-0.055C0.182,-0.055 0.166,-0.081 0.166,-0.117L0.166,-0.417L0.264,-0.417L0.264,-0.483L0.166,-0.483L0.166,-0.615L0.09,-0.615L0.09,-0.483L0.01,-0.483L0.01,-0.417L0.09,-0.417L0.09,-0.101C0.09,-0.029 0.126,0.012 0.198,0.012Z" style="fill:white;fill-rule:nonzero;"/>
        </g>
        <g transform="matrix(7.1782,0,0,7.1782,128.927,55.485)">
            <path d="M0.049,0.189C0.062,0.193 0.087,0.196 0.103,0.196C0.167,0.195 0.216,0.168 0.245,0.098L0.487,-0.483L0.406,-0.483L0.245,-0.087L0.085,-0.483L0.003,-0.483L0.205,0.005L0.173,0.078C0.156,0.118 0.134,0.129 0.101,0.129C0.089,0.129 0.071,0.126 0.06,0.121L0.049,0.189Z" style="fill:white;fill-rule:nonzero;"/>
        </g>
    </g>
</svg>
